# xmcd CD database file
#
# Track frame offsets:
#	150
#	17642
#	35423
#	64470
#	80247
#	94754
#	117304
#	139455
#	155259
#	172216
#	189657
#	210696
#	230348
#	248951
#	264258
#	283236
#	297462
#	313456
#
# Disc length: 4571 seconds
#
# Revision: 0
# Processed by: cddbd v1.5.1PL0 Copyright (c) Steve Scherf et al.
# Submitted via: CDex 1.51
#
DISCID=1f11d912
DTITLE=Oscar Benton - The Very Best
DYEAR=2004
DGENRE=Blues
TTITLE0=Bensonhurst Blues
TTITLE1=Busted
TTITLE2=St. Louis Blues
TTITLE3=I Believe In Love
TTITLE4=Basin Street Blues
TTITLE5=Helpless
TTITLE6=If You Go Away
TTITLE7=Not The Same Dreams Anymore
TTITLE8=It Ain`t Nobody`s Business
TTITLE9=Roll On Sweet Missisipi
TTITLE10=Loving G.M.B.H.
TTITLE11=I Feel So Good
TTITLE12=How Can I Just Start Again
TTITLE13=I Can`t Leave You
TTITLE14=Prisoner Of Love
TTITLE15=My Petite Fleur
TTITLE16=The Day I Got Rid Of The Blues
TTITLE17=Sombody`s Love Will Do
EXTD=YEAR: 2004
EXTT0=
EXTT1=
EXTT2=
EXTT3=
EXTT4=
EXTT5=
EXTT6=
EXTT7=
EXTT8=
EXTT9=
EXTT10=
EXTT11=
EXTT12=
EXTT13=
EXTT14=
EXTT15=
EXTT16=
EXTT17=
PLAYORDER=
